<svg width="849" height="123" viewBox="0 0 849 123" fill="none" xmlns="http://www.w3.org/2000/svg">
<path d="M0 119.5C2.6 117.1 4.1 114.9 4.7 112.9C5.3 110.9 5.5 107.6 5.5 103.1V18.7999C5.5 14.2999 5.2 10.9999 4.7 8.99991C4.1 6.99991 2.6 4.7999 0 2.3999L0.200005 1.8999H40.6C53.1 1.8999 63 4.4999 70.3 9.7999C77.6 15.0999 81.2 21.9999 81.2 30.6999C81.2 37.5999 78.9 43.3999 74.2 48.0999C69.5 52.8999 63 56.0999 54.7 57.7999C65.1 59.2999 73.3 62.6999 79.2 68.1999C85.1 73.6999 88.1 80.3999 88.1 88.4999C88.1 94.6999 86.3 100.2 82.8 104.9C79.2 109.7 74.1 113.4 67.5 115.9C60.8 118.5 53 119.8 44.1 119.8H0.200005L0 119.5ZM35 57.2999C46.4 57.2999 54.4 54.9999 59.1 50.3999C63.8 45.7999 66.1 39.2999 66.1 30.7999C66.1 22.4999 63.8 15.9999 59.1 11.2999C54.4 6.5999 46.4 4.2999 35 4.2999H22.1V57.1999H35V57.2999ZM38.1 117.5C50.5 117.5 59.2 115 64.2 109.9C69.2 104.8 71.7 97.7999 71.7 88.6999C71.7 79.5999 69.2 72.4999 64.2 67.4999C59.2 62.3999 50.5 59.8999 38.1 59.8999H22.1V117.5H38.1Z" fill="white"/>
<path d="M94.7 119.5C97.3 117.1 98.8 114.9 99.4 112.9C100 110.9 100.2 107.6 100.2 103.1V23.9001C100.2 19.4001 99.9 16.1 99.4 14.1C98.9 12.1 97.3 9.90006 94.7 7.50006L94.9 7.00006L115.9 0.300049V103.1C115.9 107.6 116.2 110.9 116.7 112.9C117.3 114.9 118.8 117.1 121.4 119.5L121.2 120H94.9L94.7 119.5Z" fill="white"/>
<path d="M179.3 41C177 38.5 173 37.2 167.3 37.2C160.8 37.2 155.2 38.6 150.4 41.4C145.6 44.2 140.8 48.7 135.9 54.9L135.3 54.7V41.9C136.9 41.9 138.5 41.7 140.2 41.2C141.9 40.8 144 40.1 146.5 39.2C150.7 37.9 154.2 36.8 157.2 36.1C160.1 35.4 163.5 35 167.3 35C175.9 35 183.2 36.5 189.3 39.6C195.4 42.7 198.4 47.9 198.4 55.2V103.1C198.4 107.6 198.7 110.9 199.2 112.9C199.8 114.9 201.3 117.1 203.9 119.5L203.7 120H182.7V112.2C179.8 115.2 176.2 117.4 172 118.7C167.8 120 163.5 120.6 159.1 120.6C149.3 120.6 141.9 118.6 137 114.5C132 110.5 129.6 105.3 129.6 99C129.6 92.8 131.3 87.7 134.6 83.7C137.9 79.7 141.8 76.6 146.4 74.5C150.9 72.4 156.7 70.1 163.7 67.8C170.4 65.6 175.3 63.6 178.3 61.9C181.3 60.2 182.8 58 182.8 55.2V54.2C182.7 48 181.6 43.5 179.3 41ZM149 112.8C151.8 116.3 155.8 118.1 161 118.1C166.5 118.1 171.5 116.5 176 113.2C180.5 109.9 182.7 104.6 182.7 97.2V60.8C181.5 62.1 179.9 63.5 177.9 64.8C175.9 66.1 173.3 67.6 170 69.4C164.9 72.2 160.6 74.8 157.2 77.2C153.8 79.6 150.9 82.7 148.5 86.5C146 90.3 144.8 94.7 144.8 99.7C144.9 104.9 146.3 109.3 149 112.8Z" fill="white"/>
<path d="M230.6 115.9C224.4 112.5 219.4 107.6 215.6 101.1C211.8 94.6 209.9 86.8 209.9 77.8C209.9 63.3 213.7 52.5 221.4 45.5C229.1 38.5 238.8 35 250.7 35C254.3 35 257.4 35.5 260.3 36.4C263.1 37.4 266.2 38.6 269.5 40.2C271 41 272.4 41.7 273.8 42.2C275.2 42.8 276.5 43 277.6 43V55.1H276.9C274 49.1 270.5 44.6 266.6 41.6C262.7 38.6 257.7 37 251.5 37C241.4 37 234.6 40.3 231 46.9C227.4 53.5 225.6 63.8 225.6 77.6C225.6 86.6 227 94 229.8 99.9C232.6 105.8 236.3 110.1 240.7 112.8C245.2 115.5 250.1 116.8 255.5 116.8C268.9 116.8 281.5 111.4 293.5 100.6V23.6C293.5 19.1 293.2 15.8 292.7 13.8C292.1 11.8 290.6 9.60001 288 7.20001L288.2 6.70001L309.2 0V83.8L309.4 83.6L335.7 51.9C338.2 48.9 339.4 46 339.4 43.3C339.4 40.5 338.2 38 335.9 35.9L336.1 35.4H352.3L352.5 35.9C351.1 37.2 348.6 40.1 345 44.5L340.4 49.9L329 63.6C333.7 61.4 338.7 60.2 344.1 60.2C350.1 60.2 354.9 62 358.3 65.5C361.8 69 363.5 74.4 363.5 81.6V102.8C363.5 107.3 363.8 110.6 364.3 112.6C364.9 114.6 366.4 116.8 369 119.2L368.8 119.7H342.5L342.3 119.5C344.9 117.1 346.4 114.9 347 112.9C347.6 110.9 347.8 107.6 347.8 103.1V78.2C347.8 73.6 346.8 70 344.7 67.5C342.6 65 340.1 63.7 337.2 63.7C335 63.7 332.6 64.3 330 65.5C327.4 66.7 325.4 68.2 323.9 70L310.8 85.5C304.8 92.7 299.2 98.7 294.1 103.5C289 108.3 282.7 112.5 275.4 115.9C268 119.3 259.7 121 250.4 121C243.4 121 236.8 119.3 230.6 115.9ZM292.7 113.5C293.3 111.8 293.6 109.7 293.6 107.2V106.9L309.2 91.2V103.2C309.2 107.7 309.5 111 310 113C310.6 115 312.1 117.2 314.7 119.6L314.5 120.1H288.2L288 119.6C290.5 117.2 292 115.2 292.7 113.5Z" fill="white"/>
<path d="M387 9.20001C385.8 6.80001 384.2 4.8 382.4 3L382.6 2.5H410.9L411.1 3C409.5 4.5 408.4 5.8 407.8 7C407.2 8.2 406.9 9.5 406.9 11C406.9 13 407.6 15.8 409.1 19.4L442 102.2L460.7 55.2L446.5 19.5C444.8 15.1 443.3 11.7 442.1 9.39999C440.9 6.99999 439.3 5.00001 437.5 3.20001L437.7 2.70001H466L466.2 3.20001C464.6 4.70001 463.5 6.00001 462.9 7.20001C462.3 8.40001 462 9.70001 462 11.2C462 13.2 462.7 16 464.2 19.6L497.1 102.2L530 19.6C531.5 16 532.2 13.2 532.2 11.2C532.2 9.70001 531.9 8.40001 531.3 7.20001C530.7 6.00001 529.6 4.70001 528 3.20001L528.2 2.70001H541.8L542 3.20001C540.2 5.00001 538.6 7.09999 537.4 9.39999C536.2 11.8 534.7 15.1 533 19.5L492.7 120.5H486.8L462.2 58.8L437.6 120.5H431.7L391.4 19.4C389.7 15 388.3 11.6 387 9.20001Z" fill="white"/>
<path d="M547.6 48.4002C547 46.4002 545.5 44.2001 542.9 41.8001L543.1 41.3001L564.1 34.6001V103.7C564.1 108.2 564.4 111.5 564.9 113.5C565.5 115.5 567 117.7 569.6 120.1L569.4 120.6H543.1L542.9 120.1C545.5 117.7 547 115.5 547.6 113.5C548.2 111.5 548.4 108.2 548.4 103.7V58.2002C548.4 53.6002 548.1 50.4002 547.6 48.4002ZM548.3 12.2002C550.4 10.2002 553 9.30014 556.1 9.30014C559.2 9.30014 561.8 10.3002 563.9 12.2002C566 14.2002 567.1 16.6002 567.1 19.4002C567.1 21.4002 566.5 23.3002 565.3 25.0002C568.4 23.5002 571.6 21.7002 574.9 19.4002C578.3 17.2002 582.3 14.3001 587.1 10.8001C593.5 6.00014 598.3 2.70015 601.6 0.900146V103.7C601.6 108.2 601.9 111.5 602.4 113.5C603 115.5 604.5 117.7 607.1 120.1L606.9 120.6H580.6L580.4 120.1C583 117.7 584.5 115.5 585.1 113.5C585.7 111.5 585.9 108.2 585.9 103.7V24.5002C585.9 20.8002 584.7 18.9002 582.4 18.9002C581.3 18.9002 579.9 19.3002 578.3 20.0002C576.6 20.7002 574.6 21.8001 572.1 23.3001C568.4 25.3001 565.4 26.9002 563 27.9002C560.6 29.0002 558.3 29.5002 556.1 29.5002H555.9C552.8 29.5002 550.2 28.5001 548.1 26.6001C546 24.6001 544.9 22.2002 544.9 19.4002C544.9 16.6002 546.2 14.2002 548.3 12.2002Z" fill="white"/>
<path d="M618.3 120C620.9 117.6 622.4 115.4 623 113.4C623.6 111.4 623.8 108.1 623.8 103.6V24.4001C623.8 19.9001 623.5 16.6 623 14.6C622.4 12.6 620.9 10.4001 618.3 8.00006L618.5 7.50006L639.5 0.800049V40.4001C642.2 38.8001 644.9 37.6 647.6 36.8C650.3 36 653.4 35.5001 656.8 35.5001C664 35.5001 670.6 37.0001 676.7 40.0001C682.7 43.0001 687.5 47.7 691.1 54.1C694.7 60.5 696.5 68.6001 696.5 78.4001C696.5 88.4001 694.7 96.6001 691.2 103C687.6 109.4 683 114.1 677.2 117C671.4 119.9 665.1 121.4 658.3 121.4C651.1 121.4 644.8 119.1 639.6 114.5V120.6H618.6L618.3 120ZM644.4 114.1C647.8 117.5 651.8 119.2 656.4 119.2C665 119.2 671.2 115.8 675 108.9C678.8 102 680.7 91.9001 680.7 78.4001C680.7 65.3001 678.8 55.2001 675 48.2001C671.2 41.2001 665.1 37.7001 656.6 37.7001C651.2 37.7001 647 39.3001 643.9 42.5001C640.8 45.7001 639.3 51.2001 639.3 58.9001V97.2001C639.4 105.1 641.1 110.7 644.4 114.1Z" fill="white"/>
<path d="M711.7 117.4C708.2 113.9 706.5 108.5 706.5 101.3V58.2C706.5 53.7 706.2 50.4 705.7 48.4C705.1 46.4 703.6 44.2 701 41.8L701.2 41.3L722.2 34.6V103.2C722.2 107.6 723.3 111 725.5 113.3C727.7 115.7 730.8 116.8 734.7 116.8C741.9 116.8 750.6 113 760.8 105.5V58.1C760.8 53.6 760.5 50.3 760 48.3C759.4 46.3 757.9 44.1 755.3 41.7L755.5 41.2L776.5 34.5V103.6C776.5 108.1 776.8 111.4 777.3 113.4C777.9 115.4 779.4 117.6 782 120L781.8 120.5H760.8V108.7C754.7 113.1 748.6 116.5 742.5 119C736.4 121.5 730.9 122.7 726 122.7C720 122.7 715.2 120.9 711.7 117.4Z" fill="white"/>
<path d="M795.7 48.4001C795.1 46.4001 793.6 44.2001 791 41.8001L791.2 41.3001L812.2 34.6001V46.9001C820.9 39.3001 829.7 35.4001 838.7 35.4001C842.9 35.4001 846.2 36.0001 848.6 37.1001L841.1 48.4001L840.4 48.2001C838.6 43.6001 834.8 41.3001 829.2 41.3001C826.4 41.3001 823.6 42.0001 820.9 43.4001C818.2 44.8001 815.3 46.9001 812.3 49.7001V103.6C812.3 108.1 812.6 111.4 813.1 113.4C813.7 115.4 815.2 117.6 817.8 120L817.6 120.5H791.3L791.1 120C793.7 117.6 795.2 115.4 795.8 113.4C796.4 111.4 796.6 108.1 796.6 103.6V58.1001C796.5 53.6001 796.3 50.4001 795.7 48.4001Z" fill="white"/>
</svg>
